<?xml version="1.0" standalone="no"?>
<!DOCTYPE svg PUBLIC "-//W3C//DTD SVG 20010904//EN"
 "http://www.w3.org/TR/2001/REC-SVG-20010904/DTD/svg10.dtd">
<svg version="1.0" xmlns="http://www.w3.org/2000/svg"
 width="163.000000pt" height="163.000000pt" viewBox="0 0 163.000000 163.000000"
 preserveAspectRatio="xMidYMid meet">
<metadata>
Created by potrace 1.14, written by Peter Selinger 2001-2017
</metadata>
<g transform="translate(0.000000,163.000000) scale(0.100000,-0.100000)"
fill="#000000" stroke="none">
<path d="M538 1092 l-176 -477 214 -3 c199 -2 215 -4 210 -20 -43 -148 -147
-564 -142 -569 3 -4 11 -2 17 4 6 6 137 202 290 435 l278 423 -193 5 -194 5
124 315 c68 173 127 325 130 338 l6 22 -193 0 -194 0 -177 -478z"/>
<path d="M465 1431 c-455 -223 -558 -838 -200 -1196 29 -29 74 -67 99 -85 49
-33 166 -94 171 -88 2 2 10 28 18 59 l14 55 -66 34 c-97 49 -218 174 -265 273
-93 193 -85 416 21 596 43 72 134 166 208 214 43 28 53 41 72 92 24 65 27 85
16 85 -5 0 -44 -18 -88 -39z"/>
<path d="M1140 1364 c-26 -60 -25 -67 8 -86 47 -28 144 -132 184 -199 108
-178 116 -406 21 -598 -55 -112 -169 -225 -283 -279 -47 -22 -112 -46 -145
-52 -51 -10 -64 -17 -81 -43 -11 -18 -29 -45 -39 -61 l-19 -29 89 5 c245 15
485 185 596 421 53 115 72 215 66 352 -7 176 -59 311 -171 447 -48 57 -178
168 -199 168 -4 0 -17 -21 -27 -46z"/>
</g>
</svg>
